<svg width="30" height="23" viewBox="0 0 30 23" fill="none" xmlns="http://www.w3.org/2000/svg">
<path d="M30 14C30 14.2652 29.8947 14.5196 29.7071 14.7071C29.5196 14.8946 29.2653 15 29 15H27V17C27 17.2652 26.8947 17.5196 26.7071 17.7071C26.5196 17.8946 26.2653 18 26 18C25.7348 18 25.4805 17.8946 25.2929 17.7071C25.1054 17.5196 25 17.2652 25 17V15H23C22.7348 15 22.4805 14.8946 22.2929 14.7071C22.1054 14.5196 22 14.2652 22 14C22 13.7348 22.1054 13.4804 22.2929 13.2929C22.4805 13.1054 22.7348 13 23 13H25V11C25 10.7348 25.1054 10.4804 25.2929 10.2929C25.4805 10.1054 25.7348 9.99999 26 9.99999C26.2653 9.99999 26.5196 10.1054 26.7071 10.2929C26.8947 10.4804 27 10.7348 27 11V13H29C29.2653 13 29.5196 13.1054 29.7071 13.2929C29.8947 13.4804 30 13.7348 30 14ZM22.7663 21.3562C22.937 21.5595 23.02 21.8222 22.9971 22.0866C22.9741 22.351 22.847 22.5955 22.6438 22.7662C22.4406 22.937 22.1778 23.02 21.9134 22.997C21.649 22.974 21.4045 22.847 21.2338 22.6437C18.7188 19.6487 15.2613 18 11.5 18C7.73879 18 4.28129 19.6487 1.76629 22.6437C1.59556 22.8468 1.35115 22.9737 1.08685 22.9966C0.822536 23.0194 0.559973 22.9364 0.356917 22.7656C0.15386 22.5949 0.026944 22.3505 0.00408805 22.0862C-0.018768 21.8219 0.0643084 21.5593 0.235041 21.3562C2.10254 19.1337 4.42504 17.555 7.00629 16.71C5.43867 15.7336 4.23169 14.2733 3.56796 12.5498C2.90423 10.8264 2.81985 8.93371 3.3276 7.15806C3.83535 5.38242 4.9076 3.82045 6.38213 2.70847C7.85665 1.59649 9.65323 0.994995 11.5 0.994995C13.3469 0.994995 15.1434 1.59649 16.618 2.70847C18.0925 3.82045 19.1647 5.38242 19.6725 7.15806C20.1802 8.93371 20.0959 10.8264 19.4321 12.5498C18.7684 14.2733 17.5614 15.7336 15.9938 16.71C18.575 17.555 20.8975 19.1337 22.7663 21.3562ZM11.5 16C12.7856 16 14.0423 15.6188 15.1112 14.9045C16.1802 14.1903 17.0133 13.1752 17.5053 11.9874C17.9972 10.7997 18.1259 9.49278 17.8751 8.23191C17.6243 6.97103 17.0053 5.81284 16.0962 4.9038C15.1872 3.99476 14.029 3.37569 12.7681 3.12489C11.5073 2.87409 10.2003 3.00281 9.0126 3.49478C7.82488 3.98675 6.80972 4.81987 6.09549 5.88879C5.38126 6.95771 5.00004 8.21442 5.00004 9.49999C5.00203 11.2233 5.68748 12.8754 6.90604 14.094C8.1246 15.3126 9.77674 15.998 11.5 16Z" fill="black"/>
</svg>
