<svg width="32" height="22" viewBox="0 0 32 22" fill="none" xmlns="http://www.w3.org/2000/svg">
<path d="M14.6562 14.74C15.9964 13.8477 17.014 12.5478 17.5583 11.0326C18.1027 9.51727 18.1449 7.86703 17.6788 6.32587C17.2127 4.78471 16.2631 3.43445 14.9702 2.47478C13.6774 1.5151 12.11 0.996948 10.4999 0.996948C8.88984 0.996948 7.32249 1.5151 6.02965 2.47478C4.73682 3.43445 3.78714 4.78471 3.32105 6.32587C2.85497 7.86703 2.89722 9.51727 3.44156 11.0326C3.9859 12.5478 5.00344 13.8477 6.34369 14.74C3.9193 15.6335 1.84882 17.287 0.44119 19.4537C0.36721 19.5637 0.315823 19.6873 0.290017 19.8172C0.26421 19.9472 0.264499 20.0811 0.290866 20.2109C0.317234 20.3408 0.369154 20.4641 0.443608 20.5738C0.518063 20.6834 0.613566 20.7772 0.724568 20.8496C0.83557 20.922 0.959855 20.9716 1.0902 20.9955C1.22054 21.0195 1.35435 21.0173 1.48383 20.989C1.61332 20.9608 1.73591 20.9071 1.84446 20.8311C1.95302 20.7551 2.04539 20.6583 2.11619 20.5462C3.02418 19.1497 4.26664 18.0021 5.73074 17.2077C7.19484 16.4133 8.8342 15.9972 10.4999 15.9972C12.1657 15.9972 13.805 16.4133 15.2691 17.2077C16.7332 18.0021 17.9757 19.1497 18.8837 20.5462C19.0304 20.7642 19.2569 20.9157 19.5144 20.968C19.7719 21.0203 20.0396 20.9691 20.2597 20.8256C20.4797 20.6821 20.6345 20.4577 20.6904 20.201C20.7464 19.9443 20.6991 19.6758 20.5587 19.4537C19.1511 17.287 17.0806 15.6335 14.6562 14.74ZM4.99994 8.49999C4.99994 7.41219 5.32251 6.34883 5.92686 5.44436C6.5312 4.53988 7.39019 3.83494 8.39518 3.41865C9.40017 3.00237 10.506 2.89345 11.5729 3.10567C12.6398 3.31789 13.6198 3.84171 14.389 4.6109C15.1582 5.38009 15.682 6.3601 15.8943 7.42699C16.1065 8.49389 15.9976 9.59976 15.5813 10.6048C15.165 11.6097 14.46 12.4687 13.5556 13.0731C12.6511 13.6774 11.5877 14 10.4999 14C9.04176 13.9983 7.64377 13.4183 6.61268 12.3873C5.58159 11.3562 5.00159 9.95817 4.99994 8.49999ZM31.2674 20.8375C31.0453 20.9823 30.7747 21.033 30.5153 20.9784C30.2558 20.9238 30.0286 20.7683 29.8837 20.5462C28.9768 19.1489 27.7345 18.0008 26.2701 17.2067C24.8057 16.4126 23.1658 15.9978 21.4999 16C21.2347 16 20.9804 15.8946 20.7928 15.7071C20.6053 15.5196 20.4999 15.2652 20.4999 15C20.4999 14.7348 20.6053 14.4804 20.7928 14.2929C20.9804 14.1053 21.2347 14 21.4999 14C22.3099 13.9992 23.1097 13.8196 23.8422 13.4739C24.5747 13.1282 25.2218 12.625 25.7372 12.0002C26.2527 11.3754 26.6238 10.6445 26.824 9.85971C27.0243 9.07489 27.0487 8.25553 26.8956 7.46018C26.7424 6.66482 26.4155 5.91311 25.9382 5.25874C25.4609 4.60437 24.8449 4.0635 24.1343 3.67478C23.4237 3.28606 22.6361 3.05909 21.8276 3.01007C21.0191 2.96106 20.2098 3.09121 19.4574 3.39124C19.3348 3.44427 19.2027 3.47217 19.0691 3.4733C18.9355 3.47443 18.803 3.44876 18.6794 3.39782C18.5559 3.34687 18.4438 3.27168 18.3498 3.17668C18.2558 3.08168 18.1818 2.96881 18.1322 2.84473C18.0825 2.72065 18.0583 2.58788 18.0608 2.45426C18.0634 2.32065 18.0927 2.1889 18.147 2.06681C18.2013 1.94471 18.2796 1.83474 18.3771 1.7434C18.4747 1.65205 18.5895 1.58119 18.7149 1.53499C20.4368 0.848305 22.3519 0.823594 24.0909 1.46562C25.8298 2.10766 27.2694 3.37094 28.1319 5.01176C28.9944 6.65259 29.2187 8.55469 28.7616 10.3511C28.3044 12.1476 27.1981 13.7111 25.6562 14.74C28.0806 15.6335 30.1511 17.287 31.5587 19.4537C31.7035 19.6759 31.7542 19.9464 31.6996 20.2059C31.645 20.4654 31.4895 20.6926 31.2674 20.8375Z" fill="black"/>
</svg>
