<svg width="28" height="19" viewBox="0 0 28 19" fill="none" xmlns="http://www.w3.org/2000/svg">
<path d="M23.8825 4.08374C22.5862 2.78456 21.0456 1.75483 19.3495 1.05393C17.6534 0.353035 15.8352 -0.00516255 14 -6.14635e-06H13.95C6.25875 0.0262439 0 6.37499 0 14.1412V17C0 17.5304 0.210714 18.0391 0.585786 18.4142C0.960859 18.7893 1.46957 19 2 19H26C26.5304 19 27.0391 18.7893 27.4142 18.4142C27.7893 18.0391 28 17.5304 28 17V14C28.0051 12.1567 27.6438 10.3308 26.9369 8.62845C26.23 6.92609 25.1918 5.38124 23.8825 4.08374ZM26 17H12.9637L19.8088 7.58749C19.9649 7.373 20.0294 7.10526 19.9882 6.84318C19.9469 6.5811 19.8032 6.34614 19.5888 6.18999C19.3743 6.03385 19.1065 5.9693 18.8444 6.01056C18.5824 6.05182 18.3474 6.1955 18.1912 6.40999L10.49 17H2V14.1412C2 13.7562 2.01875 13.3762 2.05375 13H5C5.26522 13 5.51957 12.8946 5.70711 12.7071C5.89464 12.5196 6 12.2652 6 12C6 11.7348 5.89464 11.4804 5.70711 11.2929C5.51957 11.1054 5.26522 11 5 11H2.40875C3.69875 6.14249 7.90875 2.46999 13 2.04249V4.99999C13 5.26521 13.1054 5.51956 13.2929 5.7071C13.4804 5.89464 13.7348 5.99999 14 5.99999C14.2652 5.99999 14.5196 5.89464 14.7071 5.7071C14.8946 5.51956 15 5.26521 15 4.99999V2.04124C17.4808 2.25002 19.8356 3.22412 21.7389 4.82894C23.6422 6.43377 25.0001 8.5901 25.625 11H23C22.7348 11 22.4804 11.1054 22.2929 11.2929C22.1054 11.4804 22 11.7348 22 12C22 12.2652 22.1054 12.5196 22.2929 12.7071C22.4804 12.8946 22.7348 13 23 13H25.9587C25.985 13.3312 26 13.6637 26 14V17Z" fill="black"/>
</svg>
