<svg width="23" height="30" viewBox="0 0 23 30" fill="none" xmlns="http://www.w3.org/2000/svg">
<path d="M22.9738 13.7712C22.9359 13.611 22.8591 13.4625 22.75 13.3391C22.641 13.2157 22.5032 13.1211 22.3488 13.0637L15.1475 10.3625L16.98 1.19625C17.0215 0.983272 16.9926 0.76258 16.8977 0.567473C16.8028 0.372365 16.6469 0.213429 16.4538 0.114648C16.2606 0.015866 16.0405 -0.0174009 15.8267 0.0198669C15.613 0.0571348 15.4172 0.162915 15.2688 0.321246L1.26879 15.3212C1.15508 15.4411 1.07283 15.5872 1.02937 15.7465C0.985913 15.9059 0.982607 16.0735 1.01975 16.2345C1.05689 16.3954 1.13332 16.5447 1.24222 16.6689C1.35111 16.7931 1.48908 16.8884 1.64379 16.9462L8.84754 19.6475L7.02004 28.8037C6.97855 29.0167 7.00745 29.2374 7.10238 29.4325C7.19732 29.6276 7.35314 29.7866 7.54632 29.8853C7.73951 29.9841 7.95959 30.0174 8.17334 29.9801C8.3871 29.9429 8.58293 29.8371 8.73129 29.6787L22.7313 14.6787C22.8429 14.5589 22.9234 14.4135 22.9657 14.2552C23.008 14.097 23.0108 13.9308 22.9738 13.7712ZM9.67129 25.75L10.98 19.2025C11.0269 18.9703 10.9898 18.729 10.8753 18.5216C10.7608 18.3142 10.5765 18.1542 10.355 18.07L3.75004 15.5887L14.3275 4.25625L13.02 10.8037C12.9732 11.036 13.0103 11.2773 13.1248 11.4847C13.2392 11.6921 13.4236 11.8521 13.645 11.9362L20.245 14.4112L9.67129 25.75Z" fill="black"/>
</svg>
