<svg width="8" height="28" viewBox="0 0 8 28" fill="none" xmlns="http://www.w3.org/2000/svg">
<path d="M4 10C3.20888 10 2.43552 10.2346 1.77772 10.6741C1.11993 11.1136 0.607234 11.7384 0.304484 12.4693C0.00173312 13.2002 -0.0774802 14.0044 0.0768607 14.7804C0.231202 15.5563 0.612165 16.269 1.17157 16.8284C1.73098 17.3878 2.44372 17.7688 3.21964 17.9231C3.99556 18.0775 4.79983 17.9983 5.53074 17.6955C6.26164 17.3928 6.88635 16.8801 7.32588 16.2223C7.76541 15.5645 8 14.7911 8 14C8 12.9391 7.57857 11.9217 6.82843 11.1716C6.07828 10.4214 5.06087 10 4 10ZM4 16C3.60444 16 3.21776 15.8827 2.88886 15.6629C2.55996 15.4432 2.30362 15.1308 2.15224 14.7654C2.00087 14.3999 1.96126 13.9978 2.03843 13.6098C2.1156 13.2219 2.30608 12.8655 2.58579 12.5858C2.86549 12.3061 3.22186 12.1156 3.60982 12.0384C3.99778 11.9613 4.39992 12.0009 4.76537 12.1522C5.13082 12.3036 5.44318 12.56 5.66294 12.8889C5.8827 13.2178 6 13.6044 6 14C6 14.5304 5.78929 15.0391 5.41422 15.4142C5.03914 15.7893 4.53044 16 4 16ZM4 8C4.79113 8 5.56449 7.76541 6.22228 7.32588C6.88008 6.88635 7.39277 6.26164 7.69552 5.53074C7.99827 4.79983 8.07749 3.99556 7.92314 3.21964C7.7688 2.44372 7.38784 1.73098 6.82843 1.17157C6.26902 0.612165 5.55629 0.231202 4.78036 0.0768607C4.00444 -0.0774802 3.20017 0.00173312 2.46927 0.304484C1.73836 0.607234 1.11365 1.11992 0.674124 1.77772C0.234598 2.43552 2.15558e-06 3.20888 2.15558e-06 4C2.15558e-06 5.06087 0.421429 6.07828 1.17157 6.82843C1.92172 7.57857 2.93914 8 4 8ZM4 2C4.39557 2 4.78225 2.1173 5.11114 2.33706C5.44004 2.55683 5.69639 2.86918 5.84776 3.23463C5.99914 3.60009 6.03874 4.00222 5.96157 4.39018C5.8844 4.77814 5.69392 5.13451 5.41422 5.41422C5.13451 5.69392 4.77814 5.8844 4.39018 5.96157C4.00222 6.03874 3.60009 5.99914 3.23464 5.84776C2.86918 5.69639 2.55683 5.44004 2.33706 5.11114C2.1173 4.78224 2 4.39556 2 4C2 3.46957 2.21072 2.96086 2.58579 2.58579C2.96086 2.21072 3.46957 2 4 2ZM4 20C3.20888 20 2.43552 20.2346 1.77772 20.6741C1.11993 21.1136 0.607234 21.7384 0.304484 22.4693C0.00173312 23.2002 -0.0774802 24.0044 0.0768607 24.7804C0.231202 25.5563 0.612165 26.269 1.17157 26.8284C1.73098 27.3878 2.44372 27.7688 3.21964 27.9231C3.99556 28.0775 4.79983 27.9983 5.53074 27.6955C6.26164 27.3928 6.88635 26.8801 7.32588 26.2223C7.76541 25.5645 8 24.7911 8 24C8 22.9391 7.57857 21.9217 6.82843 21.1716C6.07828 20.4214 5.06087 20 4 20ZM4 26C3.60444 26 3.21776 25.8827 2.88886 25.6629C2.55996 25.4432 2.30362 25.1308 2.15224 24.7654C2.00087 24.3999 1.96126 23.9978 2.03843 23.6098C2.1156 23.2219 2.30608 22.8655 2.58579 22.5858C2.86549 22.3061 3.22186 22.1156 3.60982 22.0384C3.99778 21.9613 4.39992 22.0009 4.76537 22.1522C5.13082 22.3036 5.44318 22.56 5.66294 22.8889C5.8827 23.2178 6 23.6044 6 24C6 24.5304 5.78929 25.0391 5.41422 25.4142C5.03914 25.7893 4.53044 26 4 26Z" fill="black"/>
</svg>
