<svg width="26" height="24" viewBox="0 0 26 24" fill="none" xmlns="http://www.w3.org/2000/svg">
<path d="M8.50005 12H2.00005C1.7233 11.9991 1.44976 11.9407 1.19673 11.8286C0.943696 11.7165 0.716683 11.5531 0.530051 11.3487C0.340732 11.1412 0.196631 10.8966 0.106897 10.6304C0.0171636 10.3642 -0.0162422 10.0823 0.00880089 9.8025C0.178613 7.92879 0.753755 6.11441 1.69438 4.48504C2.635 2.85568 3.91862 1.45029 5.4563 0.366248C5.68345 0.205583 5.94162 0.0940793 6.21431 0.0388641C6.48701 -0.016351 6.76822 -0.0140628 7.03998 0.0455828C7.31174 0.105228 7.56806 0.220919 7.79256 0.385259C8.01707 0.549599 8.20481 0.758974 8.3438 0.999998L11.5938 6.625C11.6595 6.73876 11.7021 6.86433 11.7192 6.99456C11.7363 7.12478 11.7276 7.25711 11.6936 7.38398C11.6596 7.51084 11.601 7.62977 11.521 7.73397C11.441 7.83816 11.3413 7.92559 11.2276 7.99125C11.1138 8.05691 10.9882 8.09952 10.858 8.11665C10.7278 8.13378 10.5954 8.12509 10.4686 8.09108C10.3417 8.05707 10.2228 7.99841 10.1186 7.91844C10.0144 7.83847 9.92696 7.73876 9.8613 7.625L6.6113 2C5.30994 2.9167 4.22349 4.10544 3.42724 5.4838C2.631 6.86217 2.14402 8.3972 2.00005 9.9825C1.9998 9.98629 2.00047 9.99008 2.00199 9.99356C2.00351 9.99704 2.00585 10.0001 2.0088 10.0025L8.50005 10C8.76527 10 9.01962 10.1054 9.20716 10.2929C9.39469 10.4804 9.50005 10.7348 9.50005 11C9.50005 11.2652 9.39469 11.5196 9.20716 11.7071C9.01962 11.8946 8.76527 12 8.50005 12ZM25.9913 9.8025C25.8215 7.92879 25.2463 6.11441 24.3057 4.48504C23.3651 2.85568 22.0815 1.45029 20.5438 0.366248C20.3167 0.205583 20.0585 0.0940793 19.7858 0.0388641C19.5131 -0.016351 19.2319 -0.0140628 18.9601 0.0455828C18.6884 0.105228 18.432 0.220919 18.2075 0.385259C17.983 0.549599 17.7953 0.758974 17.6563 0.999998L14.4126 6.625C14.3469 6.73876 14.3043 6.86433 14.2871 6.99456C14.27 7.12478 14.2787 7.25711 14.3127 7.38398C14.3814 7.6402 14.5491 7.85864 14.7788 7.99125C15.0085 8.12386 15.2816 8.15977 15.5378 8.09108C15.6646 8.05707 15.7836 7.99841 15.8878 7.91844C15.992 7.83847 16.0794 7.73876 16.1451 7.625L19.3951 2C20.695 2.91758 21.7801 4.10665 22.5752 5.48494C23.3703 6.86322 23.8565 8.3978 24.0001 9.9825C24.0001 9.99125 24.0001 9.9975 24.0001 10H17.5001C17.2348 10 16.9805 10.1054 16.7929 10.2929C16.6054 10.4804 16.5001 10.7348 16.5001 11C16.5001 11.2652 16.6054 11.5196 16.7929 11.7071C16.9805 11.8946 17.2348 12 17.5001 12H24.0001C24.2768 11.9991 24.5503 11.9407 24.8034 11.8286C25.0564 11.7165 25.2834 11.5531 25.4701 11.3487C25.6594 11.1412 25.8035 10.8966 25.8932 10.6304C25.9829 10.3642 26.0163 10.0823 25.9913 9.8025ZM16.1163 14.3975C16.0506 14.2837 15.9632 14.184 15.859 14.1041C15.7548 14.0241 15.6359 13.9654 15.509 13.9314C15.3822 13.8974 15.2498 13.8887 15.1196 13.9058C14.9894 13.923 14.8638 13.9656 14.7501 14.0312C14.6363 14.0969 14.5366 14.1843 14.4566 14.2885C14.3766 14.3927 14.318 14.5117 14.284 14.6385C14.25 14.7654 14.2413 14.8977 14.2584 15.0279C14.2755 15.1582 14.3181 15.2837 14.3838 15.3975L17.6138 20.9887C16.1672 21.655 14.5934 22 13.0007 22C11.408 22 9.83419 21.655 8.38755 20.9887L11.6163 15.3975C11.682 15.2837 11.7246 15.1582 11.7417 15.0279C11.7588 14.8977 11.7501 14.7654 11.7161 14.6385C11.6821 14.5117 11.6235 14.3927 11.5435 14.2885C11.4635 14.1843 11.3638 14.0969 11.2501 14.0312C11.1363 13.9656 11.0107 13.923 10.8805 13.9058C10.7503 13.8887 10.6179 13.8974 10.4911 13.9314C10.3642 13.9654 10.2453 14.0241 10.1411 14.1041C10.0369 14.184 9.94946 14.2837 9.8838 14.3975L6.6563 19.9887C6.51733 20.2292 6.42997 20.496 6.39979 20.7721C6.3696 21.0482 6.39725 21.3276 6.48098 21.5924C6.56471 21.8572 6.70267 22.1017 6.88609 22.3102C7.0695 22.5188 7.29435 22.6869 7.5463 22.8037C9.25643 23.5919 11.1171 24 13.0001 24C14.883 24 16.7437 23.5919 18.4538 22.8037C18.7058 22.6869 18.9306 22.5188 19.114 22.3102C19.2974 22.1017 19.4354 21.8572 19.5191 21.5924C19.6028 21.3276 19.6305 21.0482 19.6003 20.7721C19.5701 20.496 19.4828 20.2292 19.3438 19.9887L16.1163 14.3975ZM13.0001 12.5C13.2967 12.5 13.5867 12.412 13.8334 12.2472C14.0801 12.0824 14.2723 11.8481 14.3859 11.574C14.4994 11.2999 14.5291 10.9983 14.4712 10.7074C14.4134 10.4164 14.2705 10.1491 14.0607 9.93934C13.8509 9.72956 13.5837 9.5867 13.2927 9.52882C13.0017 9.47094 12.7001 9.50065 12.426 9.61418C12.1519 9.72771 11.9177 9.91997 11.7528 10.1666C11.588 10.4133 11.5001 10.7033 11.5001 11C11.5001 11.3978 11.6581 11.7794 11.9394 12.0607C12.2207 12.342 12.6022 12.5 13.0001 12.5Z" fill="black"/>
</svg>
