<svg width="25" height="25" viewBox="0 0 25 25" fill="none" xmlns="http://www.w3.org/2000/svg">
<path d="M12.5 0C9.18591 0.0036395 6.0086 1.32177 3.66518 3.66518C1.32177 6.0086 0.0036395 9.18591 0 12.5V23.0413C0.000661516 23.5605 0.207242 24.0584 0.574435 24.4256C0.941629 24.7928 1.43946 24.9993 1.95875 25H12.5C15.8152 25 18.9946 23.683 21.3388 21.3388C23.683 18.9946 25 15.8152 25 12.5C25 9.18479 23.683 6.00537 21.3388 3.66117C18.9946 1.31696 15.8152 0 12.5 0ZM12.5 23H2V12.5C2 10.4233 2.61581 8.39323 3.76957 6.66651C4.92332 4.9398 6.5632 3.59399 8.48182 2.79926C10.4004 2.00454 12.5116 1.79661 14.5484 2.20175C16.5852 2.6069 18.4562 3.60693 19.9246 5.07538C21.3931 6.54383 22.3931 8.41475 22.7982 10.4516C23.2034 12.4884 22.9955 14.5996 22.2007 16.5182C21.406 18.4368 20.0602 20.0767 18.3335 21.2304C16.6068 22.3842 14.5767 23 12.5 23ZM14 13C14 13.2967 13.912 13.5867 13.7472 13.8334C13.5824 14.08 13.3481 14.2723 13.074 14.3858C12.7999 14.4993 12.4983 14.5291 12.2074 14.4712C11.9164 14.4133 11.6491 14.2704 11.4393 14.0607C11.2296 13.8509 11.0867 13.5836 11.0288 13.2926C10.9709 13.0017 11.0006 12.7001 11.1142 12.426C11.2277 12.1519 11.42 11.9176 11.6666 11.7528C11.9133 11.588 12.2033 11.5 12.5 11.5C12.8978 11.5 13.2794 11.658 13.5607 11.9393C13.842 12.2206 14 12.6022 14 13ZM8.5 13C8.5 13.2967 8.41203 13.5867 8.2472 13.8334C8.08238 14.08 7.84811 14.2723 7.57403 14.3858C7.29994 14.4993 6.99834 14.5291 6.70736 14.4712C6.41639 14.4133 6.14912 14.2704 5.93934 14.0607C5.72956 13.8509 5.5867 13.5836 5.52882 13.2926C5.47094 13.0017 5.50065 12.7001 5.61418 12.426C5.72771 12.1519 5.91997 11.9176 6.16665 11.7528C6.41332 11.588 6.70333 11.5 7 11.5C7.39782 11.5 7.77936 11.658 8.06066 11.9393C8.34196 12.2206 8.5 12.6022 8.5 13ZM19.5 13C19.5 13.2967 19.412 13.5867 19.2472 13.8334C19.0824 14.08 18.8481 14.2723 18.574 14.3858C18.2999 14.4993 17.9983 14.5291 17.7074 14.4712C17.4164 14.4133 17.1491 14.2704 16.9393 14.0607C16.7296 13.8509 16.5867 13.5836 16.5288 13.2926C16.4709 13.0017 16.5007 12.7001 16.6142 12.426C16.7277 12.1519 16.92 11.9176 17.1666 11.7528C17.4133 11.588 17.7033 11.5 18 11.5C18.3978 11.5 18.7794 11.658 19.0607 11.9393C19.342 12.2206 19.5 12.6022 19.5 13Z" fill="black"/>
</svg>
