<svg width="20" height="4" viewBox="0 0 20 4" fill="none" xmlns="http://www.w3.org/2000/svg">
<path d="M11.5 2C11.5 2.29667 11.412 2.58668 11.2472 2.83335C11.0824 3.08003 10.8481 3.27229 10.574 3.38582C10.2999 3.49935 9.99834 3.52906 9.70737 3.47118C9.41639 3.4133 9.14912 3.27044 8.93934 3.06066C8.72956 2.85088 8.5867 2.58361 8.52882 2.29263C8.47095 2.00166 8.50065 1.70006 8.61418 1.42597C8.72771 1.15189 8.91997 0.917617 9.16665 0.752795C9.41332 0.587973 9.70333 0.5 10 0.5C10.3978 0.5 10.7794 0.658035 11.0607 0.93934C11.342 1.22064 11.5 1.60218 11.5 2ZM18.5 0.5C18.2033 0.5 17.9133 0.587973 17.6666 0.752795C17.42 0.917617 17.2277 1.15189 17.1142 1.42597C17.0007 1.70006 16.9709 2.00166 17.0288 2.29263C17.0867 2.58361 17.2296 2.85088 17.4393 3.06066C17.6491 3.27044 17.9164 3.4133 18.2074 3.47118C18.4983 3.52906 18.7999 3.49935 19.074 3.38582C19.3481 3.27229 19.5824 3.08003 19.7472 2.83335C19.912 2.58668 20 2.29667 20 2C20 1.60218 19.842 1.22064 19.5607 0.93934C19.2794 0.658035 18.8978 0.5 18.5 0.5ZM1.5 0.5C1.20333 0.5 0.913319 0.587973 0.666645 0.752795C0.419972 0.917617 0.227713 1.15189 0.114181 1.42597C0.000649929 1.70006 -0.0290551 2.00166 0.0288228 2.29263C0.0867006 2.58361 0.229562 2.85088 0.43934 3.06066C0.649119 3.27044 0.916394 3.4133 1.20737 3.47118C1.49834 3.52906 1.79994 3.49935 2.07403 3.38582C2.34811 3.27229 2.58238 3.08003 2.74721 2.83335C2.91203 2.58668 3 2.29667 3 2C3 1.60218 2.84197 1.22064 2.56066 0.93934C2.27936 0.658035 1.89783 0.5 1.5 0.5Z" fill="black"/>
</svg>
