<svg width="25" height="20" viewBox="0 0 25 20" fill="none" xmlns="http://www.w3.org/2000/svg">
<path d="M0.72998 4C0.72998 3.73478 0.835338 3.48043 1.02287 3.29289C1.21041 3.10536 1.46476 3 1.72998 3H5.72998C5.9952 3 6.24955 3.10536 6.43709 3.29289C6.62462 3.48043 6.72998 3.73478 6.72998 4C6.72998 4.26522 6.62462 4.51957 6.43709 4.70711C6.24955 4.89464 5.9952 5 5.72998 5H1.72998C1.46476 5 1.21041 4.89464 1.02287 4.70711C0.835338 4.51957 0.72998 4.26522 0.72998 4ZM23.73 15H18.73V13C18.73 12.7348 18.6246 12.4804 18.4371 12.2929C18.2496 12.1054 17.9952 12 17.73 12C17.4648 12 17.2104 12.1054 17.0229 12.2929C16.8353 12.4804 16.73 12.7348 16.73 13V19C16.73 19.2652 16.8353 19.5196 17.0229 19.7071C17.2104 19.8946 17.4648 20 17.73 20C17.9952 20 18.2496 19.8946 18.4371 19.7071C18.6246 19.5196 18.73 19.2652 18.73 19V17H23.73C23.9952 17 24.2496 16.8946 24.4371 16.7071C24.6246 16.5196 24.73 16.2652 24.73 16C24.73 15.7348 24.6246 15.4804 24.4371 15.2929C24.2496 15.1054 23.9952 15 23.73 15ZM13.73 15H1.72998C1.46476 15 1.21041 15.1054 1.02287 15.2929C0.835338 15.4804 0.72998 15.7348 0.72998 16C0.72998 16.2652 0.835338 16.5196 1.02287 16.7071C1.21041 16.8946 1.46476 17 1.72998 17H13.73C13.9952 17 14.2496 16.8946 14.4371 16.7071C14.6246 16.5196 14.73 16.2652 14.73 16C14.73 15.7348 14.6246 15.4804 14.4371 15.2929C14.2496 15.1054 13.9952 15 13.73 15ZM9.72998 8C9.9952 8 10.2496 7.89464 10.4371 7.70711C10.6246 7.51957 10.73 7.26522 10.73 7V5H23.73C23.9952 5 24.2496 4.89464 24.4371 4.70711C24.6246 4.51957 24.73 4.26522 24.73 4C24.73 3.73478 24.6246 3.48043 24.4371 3.29289C24.2496 3.10536 23.9952 3 23.73 3H10.73V1C10.73 0.734784 10.6246 0.48043 10.4371 0.292893C10.2496 0.105357 9.9952 0 9.72998 0C9.46476 0 9.21041 0.105357 9.02287 0.292893C8.83534 0.48043 8.72998 0.734784 8.72998 1V7C8.72998 7.26522 8.83534 7.51957 9.02287 7.70711C9.21041 7.89464 9.46476 8 9.72998 8Z" fill="black"/>
</svg>
